<?xml version="1.0" encoding="utf-8"?>
<!-- Generator: Adobe Illustrator 19.0.0, SVG Export Plug-In . SVG Version: 6.00 Build 0)  -->
<svg version="1.1" id="Capa_1" xmlns="http://www.w3.org/2000/svg" xmlns:xlink="http://www.w3.org/1999/xlink" x="0px" y="0px"
	 viewBox="-90 181.9 430.1 430.1" style="enable-background:new -90 181.9 430.1 430.1;" xml:space="preserve">
<g>
	<path id="LinkedIn" d="M250,415.2v90.1h-52.2v-84c0-21.1-7.6-35.5-26.5-35.5c-14.4,0-23,9.7-26.8,19.1c-1.4,3.4-1.7,8-1.7,12.7
		v87.7H90.5c0,0,0.7-142.3,0-157.1h52.2v22.3c-0.1,0.2-0.2,0.3-0.3,0.5h0.3v-0.5c6.9-10.7,19.3-26,47.1-26
		C224.2,344.5,250,367,250,415.2z M35.9,272.5c-17.9,0-29.6,11.7-29.6,27.1c0,15.1,11.3,27.2,28.9,27.2h0.3
		c18.2,0,29.5-12.1,29.5-27.2C64.8,284.2,53.8,272.5,35.9,272.5z M9.5,505.3h52.2V348.2H9.5V505.3z"/>
</g>
<path d="M125.1,181.9C6.3,181.9-90,278.2-90,396.9s96.3,215,215.1,215s215.1-96.3,215.1-215S243.8,181.9,125.1,181.9z M125.1,595
	C15.6,595-73.1,506.3-73.1,396.9s88.7-198.2,198.2-198.2s198.2,88.7,198.2,198.2S234.5,595,125.1,595z"/>
</svg>
