<?xml version="1.0" encoding="utf-8"?>
<!-- Generator: Adobe Illustrator 19.0.0, SVG Export Plug-In . SVG Version: 6.00 Build 0)  -->
<svg version="1.1" id="Capa_1" xmlns="http://www.w3.org/2000/svg" xmlns:xlink="http://www.w3.org/1999/xlink" x="0px" y="0px"
	 viewBox="-66 157.4 478.6 478.6" style="enable-background:new -66 157.4 478.6 478.6;" xml:space="preserve">
<g id="XMLID_122_">
	<g>
		<path d="M301.8,370.4c1.2-7.7,2-16.1,2.2-25.5c-0.1-40.4-19.4-54.7-23.2-61.5c5.5-30.6-0.9-44.6-3.9-49.3c-11-3.9-38.2,10-53,19.9
			c-24.2-7.1-75.4-6.4-94.6,1.8c-35.4-25.4-54.2-21.5-54.2-21.5S63,256,71.9,287.8c-11.7,14.9-20.3,25.4-20.3,53.2
			c0,6.7,0.4,13,1.1,19c10,52.8,51.9,75.5,92.9,79.5c-6.2,4.7-13.6,13.6-14.6,23.9c-7.8,5-23.4,6.7-35.5,2.9
			c-17-5.4-23.5-39.1-49-34.3c-5.5,1-4.4,4.7,0.4,7.8c7.8,5,15.1,11.3,20.7,24.7c4.3,10.3,13.4,28.7,42.2,28.7
			c11.4,0,19.4-1.4,19.4-1.4s0.2,26.2,0.2,36.4c0,11.8-15.9,15.1-15.9,20.7c0,2.2,5.3,2.5,9.5,2.5c8.3,0,25.7-7,25.7-19.2
			c0-9.7,0.2-42.4,0.2-48.1c0-12.5,6.7-16.5,6.7-16.5s0.8,66.7-1.6,75.6c-2.9,10.5-8,9-8,13.7c0,7,20.9,1.7,27.8-13.6
			c5.4-11.9,3-77.4,3-77.4l5.6-0.1c0,0,0.1,30-0.1,43.6c-0.2,14.2-1.7,32.1,6.8,40.6c5.5,5.6,22.5,15.3,22.5,6.4
			c0-5.2-11.9-9.4-11.9-23.4v-64.5c7.2,0,8.7,21.2,8.7,21.2l2.6,39.4c0,0-1.7,14.4,15.5,20.4c6.1,2.1,19.1,2.7,19.7-0.9
			c0.6-3.6-15.7-8.9-15.8-20c-0.1-6.8,0.3-10.7,0.3-40.2c0-29.5-4-40.4-17.8-49C252.7,435.2,294.3,417.3,301.8,370.4z"/>
	</g>
</g>
<path d="M173.3,157.5C41.1,157.5-66,264.6-66,396.7S41.1,636,173.3,636s239.3-107.1,239.3-239.3S305.5,157.5,173.3,157.5z
	 M173.3,617.2c-121.8,0-220.5-98.7-220.5-220.5s98.7-220.5,220.5-220.5s220.5,98.7,220.5,220.5S295.1,617.2,173.3,617.2z"/>
</svg>
